<?xml version="1.0" standalone="no"?>
<!DOCTYPE svg PUBLIC "-//W3C//DTD SVG 1.1//EN" "http://www.w3.org/Graphics/SVG/1.1/DTD/svg11.dtd" >
<svg xmlns="http://www.w3.org/2000/svg">
<metadata>Generated by IcoMoon</metadata>
<defs>
<font id="icomoon" horiz-adv-x="1024">
<font-face units-per-em="1024" ascent="960" descent="-64" />
<missing-glyph horiz-adv-x="1024" />
<glyph unicode="&#x20;" horiz-adv-x="512" d="" />
<glyph unicode="&#xe900;" horiz-adv-x="1280" d="M350.346 63.014c0-52.749-42.627-95.398-95.345-95.398s-95.345 42.65-95.345 95.398c0 52.749 42.627 95.398 95.345 95.398s95.345-42.65 95.345-95.398z" />
<glyph unicode="&#xe901;" horiz-adv-x="1280" d="M936.73-9.933c-20.486 0-37.056 16.582-37.203 37.075v79.424h-403.221c-20.485 0-37.053 16.582-37.053 37.075v233.901c0 20.497 16.568 37.075 37.053 37.075h403.823v79.423c0.147 14.016 8.134 26.826 20.634 33.156 12.653 6.179 27.565 4.822 38.861-3.617l305.92-233.748c9.184-7.085 14.458-17.933 14.458-29.542 0-11.603-5.421-22.451-14.458-29.536l-305.92-233.747c-6.323-4.525-13.856-7.085-21.536-7.085l-1.357 0.147zM532.907 180.87h403.823c20.486 0 37.050-16.582 37.050-37.075v-42.202l208.013 158.848-208.013 159.45v-42.198c0-20.497-16.563-37.226-37.050-37.226h-403.823v-159.597zM320.376 394.12l-305.916 233.749c-9.188 7.084-14.46 17.935-14.46 29.539s5.422 22.456 14.46 29.539l305.916 233.749c6.477 4.973 14.31 7.686 22.443 7.686 20.485 0 37.053-16.578 37.053-37.075v-80.026h403.82c20.486 0 37.203-16.578 37.203-37.074v-233.75c0-20.496-16.717-37.074-37.203-37.074h-403.82v-79.423c0-14.016-7.983-26.977-20.635-33.156-5.121-2.562-10.694-3.918-16.419-3.918-8.133-0.301-16.116 2.412-22.443 7.234zM97.604 657.258l208.012-158.696v41.596c0 20.496 16.569 37.225 37.053 37.225 0 0 0 0 0.15 0h403.824v160.052h-403.974c-20.484 0-37.053 16.578-37.053 36.924v42.349l-208.012-159.45z" />
<glyph unicode="&#xe902;" horiz-adv-x="1352" d="M222.676 52.228c-0.64-61.968-51.169-111.702-112.733-110.899-61.563 0.807-110.974 51.507-110.174 113.471 0.64 61.161 50.050 110.576 110.814 110.899 29.902 0.16 58.525-11.751 79.472-32.997 20.947-21.406 32.78-50.377 32.621-80.474z" />
<glyph unicode="&#xe903;" horiz-adv-x="1352" d="M1239.028 960c-40.456 0-77.713-22.050-97.382-57.621-19.829-35.57-19.030-79.188 2.077-114.115l-351.949-621.114h-6.713l-14.234-1.45-219.709 286.659c8.475 45.064-10.871 90.776-49.091 115.723-38.056 24.948-87.306 23.982-124.404-2.414s-54.847-72.75-44.773-117.495l-154.148-190.083c-20.308-21.41-19.508-55.206 1.759-75.489 7.995-7.565 18.069-12.554 28.943-14.164 19.668-2.736 39.177 5.636 50.53 22.053l144.553 177.852c25.267-9.818 53.246-9.499 78.355 0.643l201.957-262.672c-29.901-56.656-8.475-126.992 47.653-157.090 4.796-2.576 9.753-4.829 14.868-6.599 45.896-16.421 97.063-1.61 127.287 36.696 30.38 38.466 33.419 92.066 7.512 133.751l352.113 620.47h4.796c62.042 0 112.411 50.7 112.411 113.149 0.16 62.611-50.209 113.31-112.411 113.31z" />
<glyph unicode="&#xe904;" horiz-adv-x="1311" d="M534.426-63.832h-0.61c-16.855 0.459-30.978 12.919-33.563 29.63l-77.451 522.416-52.241-239.477c-3.189-15.806-16.706-27.505-32.955-28.111-16.098-0.61-30.677 10.027-34.929 25.526l-43.282 144.658-21.869-49.078c-5.619-12.464-17.92-20.668-31.74-20.668h-171.002c-19.287 0-34.777 15.651-34.777 34.8 0 19.296 15.642 34.796 34.777 34.796h147.918l51.635 114.27c6.075 13.218 19.591 21.422 34.17 20.361 14.579-1.065 26.88-10.94 30.981-24.92l30.981-104.698 63.936 293.878c2.886 17.322 18.224 29.631 35.689 29.023 17.465-0.76 31.74-14.132 33.411-31.606l75.477-509.497 52.24 267.284c2.888 14.889 14.885 26.288 29.921 28.111 15.032 1.974 29.463-6.078 35.992-19.755l38.724-80.077 1.368 1.974c6.529 9.269 17.011 14.737 28.402 14.893h282.776c19.284 0 34.775-15.655 34.775-34.8 0-19.296-15.491-34.796-34.775-34.796h-264.249l-25.059-36.168c-7.135-10.179-19.132-15.802-31.437-14.737-12.3 1.065-23.233 8.663-28.549 19.907l-18.682 39.354-71.074-363.622c-2.884-16.716-17.31-29.024-34.32-29.024l-0.606 0.152zM1001.112 561.303c-8.2 0-16.097 3.343-21.869 8.965l-142.602 140.86c-50.27 45.434-54.219 123.082-8.81 173.378 0 0 0 0 0.152 0.152 45.408 50.296 123.015 54.095 173.281 8.661 50.573 41.179 124.379 35.557 168.268-12.764 43.737-48.321 42.222-122.322-3.645-168.668l-141.996-141.468c-5.923-5.774-13.82-8.965-22.172-8.965l-0.606-0.152zM916.824 859.282c-23.233-1.823-43.282-17.018-51.331-38.9s-2.429-46.497 14.279-62.908h0.606l120.734-119.435 120.734 119.435h0.606c16.708 16.259 22.176 40.875 14.279 62.908-8.049 21.881-28.099 37.077-51.331 38.9-23.237 1.824-45.408-10.181-56.496-30.694-5.62-10.181-16.249-16.411-27.791-16.411s-22.172 6.23-27.791 16.411c-10.326 18.994-30.372 30.847-51.937 30.847-1.671 0-3.039 0-4.559-0.152z" />
<glyph unicode="&#xe905;" horiz-adv-x="1311" d="M1290.891 357.229c0-58.2-47.079-105.304-105.243-105.304-58.167 0-105.243 47.104-105.243 105.304 0 58.196 47.075 105.3 105.243 105.3 58.163-0.152 105.243-47.256 105.243-105.3z" />
<glyph unicode="&#xe906;" d="M287.289 64.292c-0.12-47.447-38.658-85.77-85.96-85.647-47.422 0.118-85.72 38.676-85.6 86.006s38.538 85.647 85.72 85.647c47.422 0 85.84-38.559 85.84-86.006z" />
<glyph unicode="&#xe907;" d="M342.871-36.009c-21.010 7.567-31.935 30.628-24.492 51.773 7.443 21.018 30.614 32.072 51.624 24.622 207.215-73.272 451.767 36.879 534.004 241.208 4.567 14.536 16.809 25.349 31.816 27.868 15.007 2.524 30.136-3.604 39.137-15.857 9.006-12.252 10.445-28.59 3.604-42.163-77.558-194.596-270.607-315.443-471.218-315.443h-0.48c-55.826-0.118-111.291 9.37-163.996 27.991zM76.348 176.968c-80.317 129.613-98.325 288.417-48.983 432.685 47.422 145.109 157.393 261.388 299.658 316.885 79.957 30.511 166.397 40.361 251.158 28.709 20.408-4.565 33.976-24.025 31.094-44.806-2.76-20.781-20.89-36.037-41.902-35.076-71.311 9.73-143.945 1.442-211.296-24.025-119.935-46.608-212.618-144.749-252.236-267.274-41.659-121.325-26.772-255.020 40.819-364.096 7.803-12.493 8.284-28.227 1.201-41.078-7.084-12.856-20.649-20.905-35.417-20.905-13.686 0-26.652 7.209-34.096 18.98zM976.164 369.526v0zM973.404 369.526l-468.699 37.837c-13.086 1.085-24.851 8.653-31.454 20.065-6.603 11.407-7.203 25.344-1.681 37.356l198.571 431.122c4.562 9.73 12.846 17.298 22.932 21.022 10.081 3.484 21.007 3.003 30.612-1.562 194.611-91.534 311.424-294.783 292.454-508.961-1.802-20.782-19.21-36.756-40.1-36.756l-2.637-0.123zM568.576 483.163l369.050-29.67c-0.599 152.197-81.28 292.861-212.378 370.22l-156.672-340.55z" />
<glyph unicode="&#xe908;" horiz-adv-x="1138" d="M248.037-37.086c-20.078 0-36.409 16.338-36.409 36.426 0 20.093 16.331 36.432 36.409 36.432h642.245c15.525 89.6 85.663 159.778 175.218 175.314v129.781c-89.554 15.536-159.693 85.717-175.218 175.317h-612.127c-15.662-89.466-85.802-159.376-175.218-174.782v-159.915c0-20.087-16.33-36.426-36.409-36.426s-36.409 16.202-36.409 36.426v310.723c0 53.439 43.235 96.832 96.644 96.832h914.24c53.407 0 96.774-43.259 96.774-96.832v-432.602c0-53.436-43.236-96.831-96.643-96.831l-793.098 0.137zM964.301 36.306h76.834c13.255 0 23.962 10.712 23.962 23.842v76.874c-49.26-12.988-87.677-51.428-100.796-100.716zM1064.96 416.003v76.207c0 13.259-10.706 23.974-23.956 23.974h-76.834c13.386-48.885 51.803-87.055 100.79-100.181zM103.607 492.88v-76.877c48.992 13.259 87.14 51.698 100.124 100.717h-76.298c-13.252 0-23.826-10.714-23.826-23.84zM555.237 111.576v45.54h-67.062c-15.929 0-28.645 12.857-28.645 28.791 0 15.804 12.851 28.661 28.645 28.661h67.062v38.707h-17c-42.031 0-76.298 34.020-76.298 76.072v0.137c0 42.189 34.133 76.341 76.298 76.341h17v35.893c0 15.938 12.851 28.795 28.778 28.661 15.798 0 28.644-12.857 28.644-28.661v-35.893h65.991c15.929 0 28.78-12.857 28.78-28.793 0-15.94-12.851-28.666-28.78-28.666h-66.526v-37.632h20.48c42.166 0 76.299-34.15 76.299-76.339v-1.075c0-42.189-34.133-76.339-76.299-76.339h-20.48v-45.534c0-15.673-12.715-28.53-28.507-28.53-15.53 0.404-28.112 12.993-28.38 28.661zM612.124 214.568h20.48c10.308 0 18.739 8.442 18.739 18.751 0 0 0 0 0 0.137v1.070c0 10.314-8.294 18.751-18.603 18.887 0 0 0 0-0.137 0h-20.48v-38.844zM518.829 329.483c0-10.314 8.433-18.751 18.74-18.751h17v37.632h-16.866c-10.307 0-18.74-8.3-18.873-18.614 0-0.131 0-0.267 0-0.267zM141.086 689.759l-101.864 103.128-4.551 5.759-3.346 6.161c-0.803 2.009-1.339 4.152-1.74 6.295-0.402 2.277-0.535 4.553-0.535 6.831s0.134 4.553 0.535 6.83c0.535 2.277 1.339 4.554 2.276 6.831l3.346 6.295 5.087 6.295 100.125 100.181c15.126 11.786 36.676 10.447 50.196-3.214 13.52-13.527 14.992-35.090 3.213-50.358l-35.874-35.894h906.741c14.592 1.741 28.917-4.955 36.813-17.411s7.896-28.393 0-40.849c-7.896-12.456-22.221-19.286-36.813-17.545h-906.473l36.275-35.893c11.779-8.974 17.133-23.974 13.921-38.439s-14.456-25.715-28.913-28.929c-2.677-0.67-5.488-0.938-8.3-0.938-11.779 0.134-22.889 5.625-30.118 14.866z" />
<glyph unicode="&#xe909;" horiz-adv-x="1138" d="M84.196-56.371c46.5 0 84.195 37.717 84.195 84.247 0 46.524-37.695 84.241-84.195 84.241s-84.196-37.717-84.196-84.241c0-46.529 37.695-84.247 84.196-84.247z" />
<glyph unicode="&#xe90a;" d="M0 10.665c0-41.211 33.252-74.665 74.214-74.665s74.214 33.454 74.214 74.665c0 41.211-33.251 74.665-74.214 74.665s-74.214-33.454-74.214-74.665z" />
<glyph unicode="&#xe90b;" d="M411.551-23.88h-188.91c-18.674 0-33.734 15.273-33.734 34.058 0 18.79 15.059 33.94 33.734 33.94h188.91c125.056-0.241 245.294 48.727 334.93 136.484l197.586 183.88c17.106 17.091 17.224 44.851 0.241 62.065-16.988 17.208-44.58 17.331-61.686 0.241l-1.085-0.968-223.729-205.455c-20.961-22.789-50.478-35.881-81.444-36.122h-193.366c-18.553 0-33.734 15.15-33.734 33.935 0 18.79 15.059 34.063 33.734 34.063h193.489c8.796 0 17.347 2.668 24.576 7.757h0.481l1.085 0.973 8.192 7.757c10.721 13.092 13.010 31.273 5.663 46.546-7.229 15.391-22.651 25.088-39.516 24.965h-371.555c-52.046 0-94.214-42.424-94.214-94.787v-90.061c0-18.785-15.060-34.058-33.734-34.058s-33.734 15.273-33.734 34.058v89.58c0 89.938 72.407 162.785 161.802 162.785h375.167c42.772-1.818 80.722-28.001 97.71-67.517l2.529-6.18 154.573 142.182c20.844 19.879 48.676 30.788 77.348 30.425h0.963c44.938-0.485 85.299-28 102.164-69.941 16.748-41.938 6.748-89.938-25.298-121.574l-197.704-184.484c-102.287-99.154-238.787-154.547-380.832-154.547h-0.603zM260.11 706.545c0 140 112.767 253.455 251.921 253.455 139.151 0 251.919-113.576 251.919-253.455-0.364-139.879-112.891-253.091-251.919-253.455-139.153 0-251.921 113.455-251.921 253.455zM309.747 706.545c0-112.364 90.6-203.515 202.284-203.394 111.683 0 202.281 91.031 202.281 203.394s-90.481 203.515-202.281 203.515c-111.684 0-202.284-91.151-202.284-203.515zM481.789 561.212v38.182h-56.383c-14.939 0-27.108 12.242-27.108 27.273s12.169 27.273 27.108 27.273h56.383v29.818h-13.373c-37.83 0-68.552 30.909-68.552 69.091 0 38.061 30.722 68.969 68.552 68.969h13.373v29.818c0 15.030 12.169 27.273 27.108 27.273s27.105-12.242 27.105-27.273v-29.818h55.782c14.94 0 27.11-12.242 27.11-27.273s-12.17-27.273-27.11-27.273h-55.782v-28.849h15.908c37.827 0 68.552-30.909 68.552-69.091v-0.97c0-38.182-30.725-69.091-68.552-69.091h-15.908v-38.182c0-15.030-12.165-27.273-27.105-27.273-14.939 0.121-27.108 12.364-27.108 27.394zM536.003 654.061h15.908c7.951 0 14.336 6.424 14.336 14.424v0.97c0 8-6.385 14.424-14.336 14.424h-15.908v-29.818zM453.839 752.606c0-8.121 6.505-14.667 14.578-14.667h13.373v29.334h-13.373c-7.951 0-14.457-6.545-14.578-14.667z" />
<glyph unicode="&#xe90c;" glyph-name="question" d="M279.177 83.372c0-46.443-37.193-84.163-82.986-84.163s-82.987 37.72-82.987 84.163c0 46.442 37.193 84.162 82.987 84.162s82.986-37.72 82.986-84.162zM334.033-14.82c-18.596 8.257-27.895 29.594-21.386 49.040 6.509 19.567 26.733 30.647 46.491 25.579 191.542-66.483 402.495 16.502 499.661 196.615 97.17 180.23 52.303 405.134-106.348 532.793-158.534 127.658-384.829 120.939-535.692-15.914-150.979-136.852-182.826-364.114-75.432-538.096 9.531-18.388 3.371-41.139-14.063-52.101s-40.215-6.365-52.186 10.491c-119.366 193.667-94.377 444.623 60.554 610.236 155.048 165.731 400.868 204.040 597.874 93.356 196.889-110.684 295.102-342.425 238.735-563.558-56.374-221.133-253.031-375.549-478.28-375.549-54.395 0-108.441 9.197-159.929 27.108zM428.874 227.18v1.415c0 32.887 26.384 59.644 58.811 59.644 15.69 0.118 30.684-6.129 41.842-17.21 11.158-11.198 17.318-26.403 17.318-42.316v-1.061c0-32.887-26.383-59.644-58.811-59.644h-0.465c-32.195 0-58.462 26.403-58.695 59.172zM432.362 335.861v16.974c-0.116 14.498 1.511 28.997 4.881 43.141 2.557 11.199 6.393 22.161 11.391 32.533 4.998 9.548 11.274 18.389 18.829 26.051 6.276 6.955 13.018 13.556 20.224 19.568l22.664 16.973 21.269 16.031c5.579 4.832 10.81 10.019 15.808 15.559 5.694 6.012 10.112 13.202 12.784 21.1 2.674 8.133 3.953 16.502 3.953 25.107 0.697 18.86-6.625 37.131-20.224 50.097-13.366 12.613-31.149 19.449-49.397 19.096-18.829 0.236-37.193-6.483-51.372-19.096-15.342-13.202-23.943-32.651-23.246-53.043h-104.255c-0.116 26.050 5.346 51.865 15.807 75.675 9.298 21.099 23.361 39.841 41.028 54.575 16.97 13.91 36.146 24.754 56.835 32.062 42.772 14.97 89.263 14.733 131.918-0.472 20.572-7.309 39.633-18.388 56.254-32.533 17.202-14.734 30.801-33.241 39.983-54.104 10.112-22.868 15.11-47.621 14.877-72.61 0-11.081-1.045-22.161-2.905-33.005-1.744-9.666-4.649-19.213-8.95-28.054-3.486-7.426-7.438-14.616-11.855-21.571s-9.763-13.438-15.807-19.096l-16.271-15.088-17.783-14.498-21.153-17.563c-5.812-5.304-11.274-10.962-16.272-16.974-5.695-6.718-10.112-14.616-12.901-23.103-2.673-8.605-3.952-17.563-3.952-26.522v-16.974l-112.159-0.236z" />
<glyph unicode="&#xe90d;" glyph-name="close" horiz-adv-x="1088" d="M84.687 907.254c23.921 23.921 62.704 23.921 86.625 0l818.806-818.806c23.923-23.923 23.923-62.707 0-86.624-23.917-23.923-62.701-23.923-86.624 0l-818.807 818.805c-23.921 23.921-23.921 62.704 0 86.625zM107.313 11.251c-23.921 23.923-23.921 62.707 0 86.63l818.806 818.804c23.923 23.921 62.707 23.921 86.624 0 23.923-23.921 23.923-62.704 0-86.625l-818.805-818.81c-23.921-23.917-62.704-23.917-86.625 0z" />
<glyph unicode="&#xe90e;" glyph-name="bell" horiz-adv-x="896" d="M448-64c70.64 0 127.94 59.104 127.94 132.026h-255.88c0-72.922 57.3-132.026 127.94-132.026zM878.778 244.845c-38.637 42.829-110.938 107.252-110.938 318.292 0 160.291-108.96 288.607-255.88 320.087v10.761c0 36.453-28.64 66.015-63.96 66.015s-63.96-29.562-63.96-66.015v-10.761c-146.92-31.48-255.879-159.796-255.879-320.087 0-211.040-72.3-275.464-110.94-318.292-12-13.306-17.32-29.21-17.22-44.787 0.22-33.83 25.96-66.016 64.2-66.016h767.601c38.24 0 64 32.186 64.198 66.016 0.096 15.578-5.222 31.501-17.222 44.787zM448-64c70.64 0 127.94 59.104 127.94 132.026h-255.88c0-72.922 57.3-132.026 127.94-132.026zM878.778 244.845c-38.637 42.829-110.938 107.252-110.938 318.292 0 160.291-108.96 288.607-255.88 320.087v10.761c0 36.453-28.64 66.015-63.96 66.015s-63.96-29.562-63.96-66.015v-10.761c-146.92-31.48-255.879-159.796-255.879-320.087 0-211.040-72.3-275.464-110.94-318.292-12-13.306-17.32-29.21-17.22-44.787 0.22-33.83 25.96-66.016 64.2-66.016h767.601c38.24 0 64 32.186 64.198 66.016 0.096 15.578-5.222 31.501-17.222 44.787zM448-64c70.64 0 127.94 59.104 127.94 132.026h-255.88c0-72.922 57.3-132.026 127.94-132.026zM878.778 244.845c-38.637 42.829-110.938 107.252-110.938 318.292 0 160.291-108.96 288.607-255.88 320.087v10.761c0 36.453-28.64 66.015-63.96 66.015s-63.96-29.562-63.96-66.015v-10.761c-146.92-31.48-255.879-159.796-255.879-320.087 0-211.040-72.3-275.464-110.94-318.292-12-13.306-17.32-29.21-17.22-44.787 0.22-33.83 25.96-66.016 64.2-66.016h767.601c38.24 0 64 32.186 64.198 66.016 0.096 15.578-5.222 31.501-17.222 44.787zM448-64c70.64 0 127.94 59.104 127.94 132.026h-255.88c0-72.922 57.3-132.026 127.94-132.026zM878.778 244.845c-38.637 42.829-110.938 107.252-110.938 318.292 0 160.291-108.96 288.607-255.88 320.087v10.761c0 36.453-28.64 66.015-63.96 66.015s-63.96-29.562-63.96-66.015v-10.761c-146.92-31.48-255.879-159.796-255.879-320.087 0-211.040-72.3-275.464-110.94-318.292-12-13.306-17.32-29.21-17.22-44.787 0.22-33.83 25.96-66.016 64.2-66.016h767.601c38.24 0 64 32.186 64.198 66.016 0.096 15.578-5.222 31.501-17.222 44.787z" />
<glyph unicode="&#xe90f;" glyph-name="cube" horiz-adv-x="890" d="M836.194 680.162v1.006l-1.714 3.353c-9.465 16.654-22.359 30.514-37.67 40.35l-278.31 176.152c-34.046 21.684-75.948 21.684-109.994 0l-279.015-176.71c-15.21-9.724-28.204-23.472-37.672-39.903l-1.712-3.353v-0.894c-9.972-18.554-15.21-39.679-15.412-61.251v-271.718c0-18.775 13.699-33.979 30.621-33.979s30.621 15.204 30.621 33.979v266.017l297.045-190.46v-376.222l-215.758 135.805c-14.605 9.496-33.341 4.132-41.903-12.074s-3.727-36.993 10.878-46.494c0.202-0.116 0.403-0.227 0.605-0.338l220.895-140.159c16.217-10.285 34.449-15.872 53.082-16.095h4.332c18.534 0.334 36.566 5.921 52.683 16.095l278.608 176.711c33.948 21.793 54.998 61.921 55.203 105.401v353.531c-0.205 21.572-5.543 42.697-15.413 61.251zM438.019 842.678c15.208 9.724 34.045 9.724 49.254 0l270.959-171.458-116.442-74.999-294.425 188.447 90.655 58.010zM462.496 481.209l-295.333 189.453 118.959 74.999 294.931-189.005-118.557-75.446zM765.885 218.994l-272.669-172.909v376.222l297.147 190.458v-347.161c-0.2-19.224-9.47-36.886-24.478-46.61zM40.859 220c0-39.344 28.707-71.199 64.163-71.199s64.163 31.855 64.163 71.199c0 39.344-28.707 71.199-64.163 71.199s-64.163-31.855-64.163-71.199z" />
<glyph unicode="&#xe910;" glyph-name="couch" horiz-adv-x="1446" d="M666.642 75.728c-39.195 43.665-39.195 114.387 0.157 157.883 39.358 43.49 103.093 43.49 142.288-0.181s39.195-114.387-0.163-157.883c-18.799-20.859-44.454-32.527-71.060-32.527-26.769 0-52.423 11.668-71.222 32.708zM1265.568 677.556h-16.251v128.181c-0.319 80.444-59.272 145.33-131.608 145.33h-759.693c-72.178-0.354-130.652-65.239-130.97-145.33v-130.479l-22.944 2.299c-79.825 1.061-145.31-69.66-146.426-158.237-0.797-63.825 32.663-121.993 84.924-148.159v-216.584c0-25.636 18.801-46.496 41.904-46.496h41.904v-70.367c0-25.811 18.96-46.851 42.223-46.851s42.223 21.040 42.223 46.851v70.192h255.886c23.262 0 42.222 21.034 42.222 46.851 0 25.811-18.96 46.851-42.222 46.851h-339.854v203.144c0 22.454-14.499 41.725-34.415 45.791-32.982 7.072-54.491 42.432-48.277 79.030 6.373 36.598 38.24 60.466 71.221 53.571 28.68-6.189 49.393-34.123 49.393-66.477v-183.517c0-25.636 18.642-46.502 41.744-46.502h856.406c23.1 0 41.906 20.866 41.906 46.502v184.048c0 37.305 27.244 67.361 60.862 67.361s60.705-30.233 60.705-67.538c0-33.238-21.829-61.35-51.302-66.654-20.715-3.359-36.009-23.161-35.852-46.499v-202.26h-330.933c-23.263 0-42.219-21.040-42.219-46.851 0-25.817 18.956-46.851 42.219-46.851h256.048v-70.367c0-25.817 18.962-46.857 42.225-46.857 23.257 0 42.219 21.040 42.219 46.857v70.367h33.141c23.106 0 41.906 20.859 41.906 46.496v215.167c73.451 34.653 107.707 128.711 76.637 210.216-23.106 59.935-76.318 98.478-134.951 97.771zM358.015 857.361h759.693c26.13 0 47.321-23.514 47.321-52.51v-172.381c-17.685-19.095-30.75-42.786-37.762-68.953h-784.867c-6.373 22.807-17.207 43.846-31.707 61.527v180.691c0.319 28.641 21.509 51.625 47.321 51.625zM349.251 379.292v90.699h771.161v-90.699h-771.161z" />
<glyph unicode="&#xe911;" glyph-name="Trazado_9582" d="M957.901 527.866c-15.881 0-28.881-15.028-28.881-33.679v-66.686c0-18.516-12.884-33.68-28.877-33.68h-30.376c-0.116 115.931-47.062 224.884-126.678 294.254-31.181 26.835-65.815 47.633-102.749 61.588-8.513 100.902-85.602 174.7-172.125 164.771-75.018-8.588-134.273-77.957-141.406-165.308-25.313-8.99-49.82-21.2-72.832-36.496-43.262 50.719-107.234 69.236-165.798 47.902-15.302-5.367-23.932-24.152-19.329-41.998 0.115-0.269 0.115-0.537 0.23-0.805l51.776-181.275c-4.948-13.686-9.205-27.909-12.657-42.132h-51.776c-26.348 0-47.749-24.688-47.979-55.282v-122.638c0-30.864 21.401-55.952 47.864-55.952h61.671c26.348-76.349 76.743-136.327 150.15-177.92v-73.533c0-18.516 12.887-33.68 28.88-33.68h114.367c15.878 0 28.88 15.030 28.88 33.68v33.68h86.063v-33.68c0-18.516 12.888-33.68 28.881-33.68h114.367c15.877 0 28.877 15.030 28.877 33.68v74.203l18.641 12.609c-15.765 13.554-28.188 31.67-36.245 52.466l-22.435-13.149c-10.468-5.367-17.143-17.445-17.143-30.729v-61.584h-57.647v33.676c0 18.52-12.884 33.68-28.877 33.68h-143.017c-15.878 0-28.88-15.030-28.88-33.68v-33.676h-57.183v61.049c0 13.284-6.674 25.363-17.144 30.729-75.823 38.642-122.192 93.924-142.787 169.733-3.797 13.954-14.842 23.347-27.384 23.347h-72.371v99.831h65.008c13.577 0.265 25.082 11.404 27.844 26.833 3.912 22.812 10.24 45.085 18.524 66.151 2.991 7.782 3.337 16.504 0.921 24.555l-43.952 157.392c35.783 1.207 69.84-18.248 90.896-51.927 8.744-15.162 26.348-19.322 39.35-9.124 0.23 0.134 0.46 0.403 0.806 0.671 20.71 16.504 43.262 29.519 66.964 38.777 6.213-25.896 17.259-49.78 32.331-70.176h-23.357c-15.763 2.415-30.26-10.6-32.331-28.982s9.090-35.289 24.852-37.704c2.532-0.403 5.063-0.403 7.594 0h286.492c15.765 2.415 26.927 19.322 24.855 37.704-1.727 15.162-11.85 27.104-24.855 28.982h-23.468c15.071 20.529 26.117 44.682 32.33 70.712 26-11.405 50.511-26.836 72.83-46.157 64.894-56.892 103.322-145.988 103.666-240.718 0-22.137-2.416-44.144-7.363-65.61 19.219-4.561 37.167-15.030 51.894-30.189 2.416 9.123 4.831 18.781 6.903 28.444h36.706c47.402 0.27 85.602 45.084 85.602 100.366v67.222c-0.461 18.383-13.349 33.142-29.11 33.142zM484.552 612.801c-55.343 0-100.215 52.33-100.215 116.869s44.872 116.87 100.215 116.87c55.343 0 100.217-52.33 100.217-116.87s-44.874-116.869-100.217-116.869z" />
<glyph unicode="&#xe912;" glyph-name="menu" horiz-adv-x="1280" d="M0 890.506c0 33.829 27.424 61.253 61.253 61.253h1157.966c33.83 0 61.254-27.424 61.254-61.253s-27.424-61.252-61.254-61.252h-1157.966c-33.829 0-61.253 27.423-61.253 61.252zM0 448c0 33.829 27.424 61.253 61.253 61.253h1157.966c33.83 0 61.254-27.424 61.254-61.253s-27.424-61.253-61.254-61.253h-1157.966c-33.829 0-61.253 27.424-61.253 61.253zM0 5.491c0 33.83 27.288 61.254 60.95 61.254h1157.968c33.664 0 60.954-27.424 60.954-61.254 0-33.824-27.29-61.248-60.954-61.248h-1157.968c-33.662 0-60.95 27.424-60.95 61.248z" />
<glyph unicode="&#xe913;" glyph-name="up-arrow" horiz-adv-x="1843" d="M82.6 34.251l790.456 790.456 790.456-790.456h-1580.913z" />
<glyph unicode="&#xe914;" glyph-name="Vector-2" horiz-adv-x="640" d="M58.359-29.546l494.035 494.034-494.035 494.036v-988.070z" />
<glyph unicode="&#xe915;" glyph-name="Icon" horiz-adv-x="973" d="M584.852 502.519c0 108.541-87.989 196.532-196.531 196.532s-196.532-87.991-196.532-196.532c0-108.54 87.991-196.532 196.532-196.532s196.531 87.992 196.531 196.532zM566.994 323.84c-45.727-45.722-108.896-74.004-178.672-74.004-139.554 0-252.684 113.132-252.684 252.683 0 139.554 113.13 252.684 252.684 252.684s252.687-113.13 252.687-252.684c0-49.445-14.203-95.576-38.753-134.529l190.761-190.756c10.962-10.967 10.962-28.744 0-39.706-10.967-10.967-28.744-10.967-39.706 0l-186.317 186.312z" />
<glyph unicode="&#xe916;" glyph-name="people" horiz-adv-x="843" d="M421.647 431.232c133.083 0 240.941 107.859 240.941 240.941s-107.859 240.941-240.941 240.941c-133.082 0-240.941-107.859-240.941-240.941s107.859-240.941 240.941-240.941zM590.306 370.996h-31.436c-41.788-19.198-88.282-30.119-137.223-30.119s-95.247 10.921-137.223 30.119h-31.436c-139.671 0-252.988-113.316-252.988-252.989v-78.306c0-49.881 40.471-90.353 90.353-90.353h662.588c49.881 0 90.353 40.472 90.353 90.353v78.306c0 139.674-113.321 252.989-252.988 252.989z" />
<glyph unicode="&#xe917;" glyph-name="element-3" horiz-adv-x="964" d="M883.441 571.266v182.312c0 56.621-25.696 79.511-89.546 79.511h-162.238c-63.847 0-89.547-22.889-89.547-79.511v-181.911c0-57.022 25.7-79.511 89.547-79.511h162.238c63.849-0.401 89.546 22.488 89.546 79.109zM883.441 119.501v162.238c0 63.849-25.696 89.548-89.546 89.548h-162.238c-63.847 0-89.547-25.699-89.547-89.548v-162.238c0-63.849 25.7-89.546 89.547-89.546h162.238c63.849 0 89.546 25.696 89.546 89.546zM421.639 571.266v182.312c0 56.621-25.701 79.511-89.55 79.511h-162.234c-63.849 0-89.55-22.889-89.55-79.511v-181.911c0-57.022 25.701-79.511 89.55-79.511h162.234c63.849-0.401 89.55 22.488 89.55 79.109zM421.639 119.501v162.238c0 63.849-25.701 89.548-89.55 89.548h-162.234c-63.849 0-89.55-25.699-89.55-89.548v-162.238c0-63.849 25.701-89.546 89.55-89.546h162.234c63.849 0 89.55 25.696 89.55 89.546z" />
<glyph unicode="&#xe918;" glyph-name="approved" d="M289.329 64.064c0-47.469-38.547-86.016-86.008-86.016s-86.008 38.547-86.008 86.016c0 47.462 38.547 86.016 86.008 86.016s86.008-38.554 86.008-86.016zM346.196-36.294c-19.274 8.435-28.91 30.24-22.164 50.24 6.866 19.878 27.826 31.322 48.184 26.144 198.518-68.070 417.154 16.864 517.858 200.941 100.704 184.080 54.208 414.058-110.221 544.527s-398.844 123.603-555.32-16.264c-156.357-139.866-189.363-372.133-78.179-549.947 9.878-18.797 3.613-42.048-14.455-53.248-18.069-11.206-41.679-6.509-54.086 10.72-123.712 197.934-97.814 454.416 62.759 623.677 160.694 169.261 415.466 208.414 619.646 95.292s305.85-350.087 247.424-575.967c-58.426-226.003-262.24-383.821-495.572-383.821-56.495 0-112.509 9.395-165.873 27.706zM396.308 206.938l-170.932 170.948c-14.093 15.059-13.732 38.671 0.964 53.369 14.575 14.577 38.186 15.059 53.364 0.963l143.347-143.36 348.009 348.16c15.174 14.095 38.669 13.734 53.363-0.964 14.573-14.577 15.059-38.189 0.966-53.368l-374.753-375.748c-7.228-7.226-16.985-11.322-27.104-11.322-10.239 0-19.996 4.096-27.224 11.322z" />
<glyph unicode="&#xe919;" glyph-name="ship" d="M595.735 15.162c0-43.725-36.229-79.136-80.961-79.136s-80.961 35.411-80.961 79.136c0 43.725 36.229 79.136 80.961 79.136s80.961-35.411 80.961-79.136zM844.282-63.962c-11.706-0.115-23.533 0.723-35.117 2.65-22.925 3.859-44.858 11.565-64.941 23.008-20.090 12.045-43.379 18.067-67.040 17.344-11.827 0.243-23.661-1.203-35.117-4.096l-3.206-0.966c-5.915-1.44-11.83 2.17-13.309 7.955-0.246 0.96-0.369 1.805-0.246 2.765v14.816c-0.616 10.118-2.588 20.115-5.791 29.754-1.603 5.779 1.848 11.68 7.763 13.248h2.218c15.4 3.488 31.298 5.178 47.074 5.056 35.117 0.723 69.747-8.192 99.936-25.536l15.776-7.706 89.216 261.606-335.551 150.554v-216.077c0.369-18.067-13.062-33.485-31.423-35.891-19.224-1.926-36.476 11.68-38.571 30.47-0.123 1.203-0.246 2.528-0.246 3.738v218.001l-335.058-150.315 88.971-261.12 15.157 7.706c30.068 17.344 64.572 26.259 99.445 25.536 16.020 0.122 32.040-1.568 47.69-5.062h2.095c5.916-1.446 9.366-7.347 7.887-13.126 0-0.122 0-0.122 0-0.243v-2.048c-3.943-12.646-5.422-25.773-4.682-38.899v-3.014c0.123-5.901-4.56-10.842-10.721-11.078-0.986 0-1.971 0.122-2.834 0.237l-3.204 0.966c-11.584 3.014-23.537 4.339-35.613 4.096-23.413 0.602-46.58-5.421-66.543-17.344-20.209-11.443-42.39-19.27-65.434-23.008-11.46-1.805-22.92-2.65-34.504-2.528-35.12-0.723-69.747 8.070-99.939 25.536-14.91 8.915-31.423 14.573-48.675 16.864-19.1 2.886-32.286 20.474-29.328 39.142 2.834 17.824 19.347 30.47 37.708 28.909 25.878-3.136 50.893-11.443 73.321-24.576 14.418-8.55 30.438-14.086 47.073-16.378l-124.707 365.187c-5.545 16.621 2.465 34.688 18.854 41.915l112.508 49.623v201.263c0 42.998 35.613 77.807 79.605 77.807h20.456v95.753c0 18.91 15.65 34.327 34.996 34.327h175.97v51.189c-0.369 18.067 13.062 33.484 31.423 35.772 19.224 1.927 36.476-11.683 38.571-30.472 0.123-1.204 0.246-2.529 0.246-3.734v-52.754h175.845c19.347 0 35.123-15.297 35.123-34.327v-95.753h20.454c43.994 0 79.603-34.809 79.603-77.807v-201.142l112.634-49.623c16.39-7.226 24.525-25.293 18.854-42.035l-124.71-365.91c16.64 2.291 32.781 7.827 47.078 16.384 22.426 13.126 47.443 21.434 73.318 24.57h3.699c18.854 0 34.502-14.336 35.61-32.762 0.986-18.067-12.57-33.728-30.931-35.776-17.248-2.163-33.888-7.949-48.672-16.858-30.195-17.587-64.819-26.502-100.064-25.779zM904.544 341.939l7.885 22.523-365.989 160.794v-22.524l358.104-160.793zM118.714 341.939l357.609 160.793v22.524l-365.495-161.276 7.886-22.041zM511.32 612.818c5.052 0 10.104-1.084 14.664-3.011l261.242-115.145v170.308c0 5.059-4.186 9.274-9.363 9.274h-532.963c-5.176 0-9.366-4.095-9.366-9.274v-170.429l261.244 115.145c4.56 2.047 9.489 3.132 14.541 3.132zM687.29 742.778v61.427h-351.817v-61.427h351.817z" />
<glyph unicode="&#xe91a;" glyph-name="chart" horiz-adv-x="1365" d="M225.409 52.378c0-62.259-50.484-112.768-112.704-112.768-62.221 0-112.705 50.509-112.705 112.768 0 62.256 50.484 112.768 112.705 112.768s112.704-50.512 112.704-112.768zM1253.291 959.839c-62.217 0-112.862-50.352-112.862-112.768 0-20.752 5.623-41.182 16.555-58.877l-356.119-620.307h-6.753l-14.309-1.287-222.194 285.701c11.576 61.291-28.618 120.329-89.874 131.751-61.257 11.582-120.261-28.634-131.677-89.925-2.894-15.282-2.572-30.887 0.805-46.008l-155.793-190.146c-20.419-21.235-19.776-55.017 1.446-75.447s54.986-19.786 75.405 1.448c1.929 1.93 3.697 4.022 5.145 6.274l146.307 177.759c25.563-9.812 53.86-9.491 79.263 0.644l204.348-262.7c-9.004-16.563-13.666-35.226-13.666-54.050-0.322-63.863 50.966-115.823 114.795-116.309 63.83-0.316 115.756 50.995 116.242 114.859 0.162 22.042-5.948 43.597-17.69 62.26l356.122 620.95h4.83c62.541 0.804 112.538 51.96 111.735 114.538-0.802 61.451-50.321 111.159-111.735 111.803l-0.324-0.161z" />
<glyph unicode="&#xe91b;" glyph-name="group-info" d="M346.223-36.294c-19.277 8.435-28.915 30.234-22.168 50.112 6.747 19.994 27.71 31.322 48.191 26.138 198.548-67.936 417.22 16.864 517.937 200.934 100.723 184.182 54.214 414.021-110.24 544.481-164.451 130.459-398.902 123.593-555.403-16.262s-189.513-372.104-78.191-550.023c9.879-18.79 3.494-42.042-14.578-53.248-18.072-11.2-41.686-6.381-54.095 10.842-123.49 197.92-97.708 454.502 62.89 623.749 160.718 169.248 415.53 208.518 619.62 95.405s305.894-349.939 247.462-575.923c-58.432-225.984-262.157-383.789-495.647-383.91-56.384 0-112.406 9.395-165.778 27.706zM465.496 190.413v333.798c0 22.285 18.072 40.475 40.481 40.475s40.481-18.069 40.481-40.475v-333.798c0-22.285-18.192-40.352-40.481-40.352-22.409 0-40.481 18.067-40.481 40.352zM465.496 694.181c0 22.285 18.072 40.475 40.481 40.475s40.481-18.069 40.481-40.475c0-22.285-18.072-40.475-40.481-40.475-22.409 0.12-40.481 18.189-40.481 40.475zM289.356 64.051c0-47.462-38.553-86.010-86.022-86.010s-86.021 38.547-86.021 86.010c0 47.462 38.553 86.010 86.021 86.010s86.022-38.547 86.022-86.010z" />
<glyph unicode="&#xe91c;" glyph-name="folder" horiz-adv-x="1365" d="M195.576 960c-108.014 0-195.576-87.562-195.576-195.576v-586.729c0-40.425 12.265-77.983 33.276-109.164l143.717 492.511c18.26 62.576 75.625 105.594 140.809 105.594l855.949 0.379c0 108.014-87.561 195.576-195.575 195.576h-472.169l-108.49 86.709c-8.667 6.926-19.431 10.7-30.526 10.7h-171.414zM1363.345 506.243c9.148 31.298-14.327 62.611-46.933 62.611h-998.561c-21.728 0-40.85-14.339-46.937-35.198l-142.676-488.933c-9.132-31.309 14.339-62.601 46.938-62.601h925.036c65.161 0 122.513 42.991 140.791 105.532l122.342 418.589z" />
<glyph unicode="&#xe91d;" glyph-name="forbidden" d="M288.069 89.83c0-47.789-38.796-86.547-86.628-86.547s-86.628 38.758-86.628 86.547c0 47.782 38.796 86.547 86.628 86.547 47.832 0.115 86.628-38.765 86.628-86.547zM512.42 960c-282.898 0-512.3-229.066-512.42-511.818 0-91 24.217-180.316 70.243-258.921 10.12-17.21 32.29-22.989 49.519-12.877s23.012 32.262 12.892 49.472c-94.339 161.057-76.508 364.003 44.338 506.161l619.649-619.070c-123.014-104.358-293.256-133.126-443.741-74.752-18.675 7.226-39.639-1.92-46.989-20.582-7.229-18.656 1.928-39.603 20.603-46.944 263.861-102.074 560.617 28.89 662.787 292.506 102.17 263.61-28.915 560.084-292.781 662.159-58.554 22.87-120.964 34.546-184.098 34.667zM847.846 164.109l-619.649 619.066c184.943 157.204 462.298 134.815 619.649-49.954 139.763-164.066 139.763-405.049 0-569.112z" />
<glyph unicode="&#xe91e;" glyph-name="setting" d="M512 288c-88.32 0-160 71.68-160 160s71.68 160 160 160c88.32 0 160-71.68 160-160s-71.68-160-160-160zM512 544c-52.907 0-96-43.093-96-96s43.093-96 96-96c52.907 0 96 43.093 96 96s-43.093 96-96 96zM648.941 13.222c-8.962 0-17.922 1.28-26.882 3.411-26.453 7.251-48.64 23.891-62.72 47.36l-5.12 8.531c-25.173 43.52-59.733 43.52-84.906 0l-4.694-8.102c-14.080-23.898-36.266-40.96-62.72-47.789-26.88-7.251-54.613-3.411-78.080 10.669l-73.386 42.24c-26.027 14.931-44.8 39.251-52.907 68.691-7.68 29.44-3.84 59.731 11.093 85.76 12.374 21.76 15.787 41.389 8.534 53.76s-25.6 19.629-50.774 19.629c-62.293 0-113.066 50.771-113.066 113.064v75.094c0 62.293 50.773 113.066 113.066 113.066 25.174 0 43.52 7.254 50.774 19.627s4.266 32-8.534 53.76c-14.933 26.027-18.773 56.747-11.093 85.76 7.68 29.44 26.453 53.76 52.907 68.693l73.813 42.24c48.213 28.587 111.787 11.947 140.8-37.12l5.12-8.533c25.173-43.52 59.733-43.52 84.907 0l4.693 8.107c29.013 49.493 92.586 66.133 141.226 37.12l73.389-42.24c26.022-14.934 44.8-39.254 52.902-68.694 7.68-29.44 3.84-59.733-11.091-85.76-12.371-21.76-15.789-41.386-8.531-53.76 7.251-12.373 25.6-19.626 50.771-19.626 62.291 0 113.069-50.774 113.069-113.067v-75.093c0-62.294-50.778-113.066-113.069-113.066-25.171 0-43.52-7.251-50.771-19.629-7.258-12.371-4.269-32 8.531-53.76 14.931-26.022 19.2-56.742 11.091-85.76-7.68-29.44-26.451-53.76-52.902-68.691l-73.818-42.24c-16.211-8.96-33.702-13.651-51.622-13.651zM511.979 171.085c37.974 0 73.387-23.891 97.707-66.131l4.693-8.109c5.12-8.96 13.654-15.36 23.894-17.92s20.479-1.28 29.011 3.84l73.818 42.669c11.091 6.4 19.622 17.069 23.040 29.869 3.411 12.8 1.702 26.022-4.698 37.12-24.32 41.811-27.302 84.902-8.531 117.76 18.771 32.851 57.6 51.624 106.24 51.624 27.309 0 49.069 21.76 49.069 49.067v75.093c0 26.88-21.76 49.067-49.069 49.067-48.64 0-87.469 18.773-106.24 51.627s-15.789 75.946 8.531 117.76c6.4 11.093 8.109 24.32 4.698 37.12-3.418 12.8-11.52 23.040-22.618 29.866l-73.811 42.24c-18.349 11.094-42.666 4.694-53.759-14.080l-4.694-8.106c-24.32-42.24-59.733-66.134-97.706-66.134s-73.387 23.894-97.707 66.134l-4.693 8.533c-10.667 17.92-34.56 24.32-52.907 13.653l-73.813-42.666c-11.094-6.4-19.627-17.067-23.040-29.867s-1.707-26.027 4.693-37.12c24.32-41.813 27.307-84.907 8.533-117.76s-57.6-51.627-106.24-51.627c-27.306 0-49.066-21.76-49.066-49.066v-75.094c0-26.88 21.76-49.066 49.066-49.066 48.64 0 87.467-18.774 106.24-51.626s15.787-75.949-8.533-117.76c-6.4-11.091-8.107-24.32-4.693-37.12s11.52-23.040 22.613-29.869l73.813-42.24c8.96-5.542 19.627-6.822 29.44-4.262 10.24 2.56 18.774 9.382 24.32 18.342l4.694 8.109c24.32 41.811 59.733 66.131 97.706 66.131z" />
<glyph unicode="&#xe91f;" glyph-name="log-out" horiz-adv-x="1365" d="M1346.441 402.703l-455.134-447.929c-40.64-39.987-111.078-11.998-111.078 45.329v255.958h-368.441c-36.032 0-65.020 28.528-65.020 63.989v255.957c0 35.461 28.988 63.99 65.020 63.99h368.441v255.957c0 57.057 70.166 85.319 111.078 45.326l455.134-447.926c25.19-25.062 25.19-65.589 0-90.651zM520.153-31.889v106.65c0 17.596-14.63 31.991-32.509 31.991h-227.567c-47.951 0-86.692 38.127-86.692 85.319v511.915c0 47.193 38.74 85.32 86.692 85.32h227.567c17.88 0 32.509 14.397 32.509 31.995v106.649c0 17.597-14.63 31.995-32.509 31.995h-227.567c-143.584 0-260.076-114.648-260.076-255.958v-511.915c0-141.306 116.493-255.96 260.076-255.96h227.567c17.88 0 32.509 14.404 32.509 32z" />
<glyph unicode="&#xe920;" glyph-name="world" horiz-adv-x="964" d="M160.259 189.211c-42.4-15.655-64.053-62.729-48.408-105.038 15.645-42.424 62.692-64.090 104.979-48.435 42.4 15.655 64.053 62.729 48.408 105.038-7.482 20.305-22.674 36.864-42.4 45.941-19.613 9.186-42.173 10.095-62.579 2.494zM482.020-4.524c-53.17 0-105.886 8.734-156.221 25.859-17.572 6.011-26.981 25.070-20.973 42.653 0 0.114 0 0.114 0.113 0.223l1.020 1.934c5.442 12.36 17.686 20.414 31.176 20.414 3.628 0 7.256-0.681 10.657-1.928l31.63-9.3 3.854 8.734c-92.055 64.542-158.262 159.599-186.943 268.378l-1.020 4.427-1.020 3.401-1.474 1.020c-46.14 34.37-85.706 76.793-116.769 125.115l-8.729 13.158v-22.346c0-77.814 21.88-154.153 63.259-220.056 9.636-15.884 4.648-36.527-11.224-46.279-15.871-9.644-36.504-4.656-46.254 11.228-98.516 157.669-97.383 358.104 2.948 514.753l4.875 7.26c32.99 49.457 74.709 92.561 123.117 127.044 195.786 139.408 464.582 112.184 628.398-63.749 18.595-19.624 35.599-40.835 50.562-63.295l5.331-8.281 1.47-2.496c141.487-224.822 73.915-521.898-150.889-663.463-9.975-6.355-20.293-12.252-30.726-17.812-43.080-23.251-89.558-39.701-137.74-48.773-29.022-5.445-58.725-8.053-88.427-7.825zM887.422 487.201l-12.131-18.036c-28.907-40.949-64.054-77.020-104.183-107.080l-1.476-1.021v-1.475c-28.57-111.162-95.684-208.49-189.323-274.616l3.854-8.734c183.541 46.502 312.216 211.775 312.445 401.206 0 1.475 0 3.403 0 4.877v18.49l-9.186-13.612zM288.274 296.406c36.051-74.746 93.982-136.909 165.97-178.2l27.209-14.631 1.927 1.018c83.212 40.954 150.555 108.442 191.249 191.813l5.783 11.686-11.674-4.879c-59.404-25.064-123.346-37.996-187.853-37.996-64.052 0-127.425 12.933-186.376 37.996l-11.79 4.879 5.556-11.686zM260.045 582.257c-15.418-58.644-17.572-120.011-6.349-179.676v-1.928l1.928-1.021c67-43.671 145.338-66.814 225.375-66.699 80.604-0.337 159.621 22.914 227.301 66.699l1.928 1.021v1.928c10.885 59.665 8.614 121.032-6.801 179.676l-1.476 5.785-5.325-2.382c-66.891-33.122-140.465-50.477-215.174-50.704-74.256 0-147.492 17.129-214.039 50.137l-5.442 2.496-1.927-5.331zM833.006 686.387c-20.859-22.233-43.875-42.424-68.59-60.346l-2.946-1.929 1.018-3.403c14.517-46.28 21.883-94.602 21.883-143.151v-15.087l8.276 9.755c10.089 11.344 19.498 23.14 28.226 35.504 22.45 31.534 40.249 66.131 53.055 102.769v3.403c-8.728 24.842-19.721 48.889-33.099 71.576l-3.403 5.785-4.421-4.878zM123.324 685.48c-13.264-22.8-24.374-46.734-33.104-71.576v-3.403c17.459-51.158 44.893-98.346 80.831-138.841l8.729-9.755v13.611c-0.226 49.23 7.142 98.232 21.88 145.080l1.020 3.403-2.947 1.929c-24.714 17.922-47.728 38.113-68.588 60.346l-4.421 4.877-3.401-5.671zM480.092 850.524c-74.483-36.072-136.382-93.809-177.647-165.611-5.556-9.415-10.544-19.17-15.078-29.265l-1.928-4.31 4.422-1.928c59.291-31.081 125.271-47.302 192.272-47.188 67.227 0 133.55 16.221 193.177 47.188l4.307 1.928-1.928 4.424c-40.809 84.961-109.057 153.587-193.629 194.876l-1.927 1.021-2.041-1.134zM580.309 870.941c64.395-45.826 116.655-106.626 152.369-177.18l2.946-5.331 4.873 3.857c19.498 15.54 37.641 32.782 53.965 51.611l2.946 3.403-2.946 3.403c-55.326 63.408-128.675 108.44-210.298 129.085l-3.854-8.848zM379.308 879.789c-81.398-20.872-154.634-66.017-209.73-129.54l-2.948-3.403 2.948-3.403c16.438-18.602 34.577-35.731 53.963-51.157l4.875-3.857 2.947 5.331c4.875 9.755 8.729 17.581 13.151 24.842 34.577 60.232 81.965 112.297 138.649 152.339l-3.854 8.848z" />
<glyph unicode="&#xe921;" glyph-name="mesedora" d="M280.129 313.626c-40.672-0.209-73.511-34.359-73.31-76.245 0.201-41.788 33.442-75.524 74.214-75.315 40.672 0.205 73.511 34.355 73.31 76.241-0.1 19.913-7.833 39.002-21.591 53.137-14.060 14.34-32.94 22.285-52.623 22.182zM500.467 21.436c-142.403-0.102-281.994 40.755-402.906 118.029-12.252 7.842-15.867 24.452-8.235 36.937 7.632 12.587 23.801 16.303 35.952 8.461 112.477-71.706 242.327-109.67 374.788-109.568 42.581 0 85.060 3.921 127.040 11.554 37.555 7.014 74.615 17.126 110.566 30.332-37.559 77.175-62.464 160.124-73.711 245.551h-353.499c-14.26 1.651-24.503 14.754-22.997 29.406 2.511 25.276 3.816 50.761 3.816 76.139 0 128.658-33.040 254.941-95.806 366.264-7.23 12.794-2.912 29.095 9.541 36.523s28.32 2.992 35.55-9.801c56.741-100.49 90.885-212.639 100.124-328.397h400.297c14.362 0 26.010-11.968 26.010-26.722s-11.648-26.722-26.010-26.722h-31.637v-11.145c0-17.331 0.405-34.769 1.711-52.1h29.926c14.362 0 26.010-11.968 26.010-26.722s-11.648-26.722-26.010-26.722h-24.303c11.145-78.72 34.748-155.068 69.794-225.946 38.963 17.643 76.224 38.793 111.471 63.245 11.853 8.149 27.921 5.052 35.955-7.121 4.015-5.777 5.623-13.103 4.318-20.117-1.207-7.014-5.124-13.205-10.846-17.335-87.471-60.975-186.492-102.447-290.633-121.638-44.791-8.256-90.283-12.484-135.876-12.484l-0.401 0.102zM620.173 416.175h39.066c-1.306 17.331-1.707 34.769-1.707 52.1v11.145h-37.359v-63.245zM526.477 416.175h41.677v63.245h-41.677v-63.245zM432.781 416.175h41.677v63.245h-41.677v-63.245zM343.402 468.275c0-17.331-0.401-34.769-1.707-52.1h39.066v63.245h-37.359v-11.145zM726.827 666.575v57.983h-56.337c-11.75 0-21.291 9.801-21.291 21.873s9.54 21.873 21.291 21.873h56.337v57.983c0 12.071 9.54 21.873 21.291 21.873s21.291-9.801 21.291-21.769v-57.983h56.439c11.746 0 21.291-9.801 21.291-21.769 0-12.071-9.545-21.872-21.291-21.872h-56.439v-57.983c0-12.071-9.54-21.769-21.193-21.873-11.849-0.103-21.389 9.595-21.389 21.666z" />
<glyph unicode="&#xe922;" glyph-name="maletin" d="M901.243 806.42h-188.897v7.835c-0.241 63.765-51.804 115.235-115.533 115.596h-117.578c-63.849 0-115.772-51.711-116.013-115.596v-7.232h-188.415c-67.825 0-122.759-54.966-122.759-122.829 0-0.241 0-0.361 0-0.603v-419.594c0-20.854 16.866-37.729 37.707-37.729s37.707 16.876 37.707 37.729v392.473c81.076-120.297 216.606-192.379 361.652-192.017h97.342c145.162-0.362 280.934 71.72 362.132 192.138v-517.47c0.241-25.917-20.48-47.13-46.259-47.37-0.364 0-0.727 0-1.085 0h-611.388c-20.841 0-37.707-16.876-37.707-37.729s16.866-37.729 37.707-37.729h611.388c67.825 0 122.757 54.963 122.757 122.829v544.471c0 67.863-54.932 122.829-122.757 122.829zM438.636 814.255c0.241 22.058 18.071 39.778 40.117 40.139h117.579c22.047-0.241 39.757-18.081 39.997-40.139v-7.232h-197.693v7.232zM586.455 539.91h-97.342c-133.361-0.361-255.879 73.167-318.403 191.054h734.148c-62.648-117.766-185.165-191.294-318.403-191.054zM175.887 54.144c0-48.579-39.394-87.992-87.943-87.992s-87.944 39.414-87.944 87.992c0 48.573 39.394 87.992 87.944 87.992s87.943-39.419 87.943-87.992z" />
<glyph unicode="&#xe923;" glyph-name="email" horiz-adv-x="1434" d="M158.72-64c-36.608 0-67.936 12.522-93.983 37.569-26.047 25.045-39.093 55.188-39.137 90.431v768c0 35.2 13.046 65.323 39.137 90.368s57.419 37.589 93.983 37.632h1064.96c36.608 0 67.953-12.544 94.044-37.632s39.117-55.211 39.076-90.368v-768c0-35.2-13.025-65.343-39.076-90.431-26.040-25.088-57.395-37.609-94.044-37.569h-1064.96zM691.2 384l-532.48 320v-640h1064.96v640l-532.48-320zM691.2 512l532.48 320h-1064.96l532.48-320zM158.72 704v0z" />
<glyph unicode="&#xe924;" glyph-name="add-notes" horiz-adv-x="1097" d="M797.257 166.4v-102.4c0-6.824 2.56-12.8 7.68-17.92s11.096-7.68 17.92-7.68c6.824 0 12.8 2.56 17.92 7.68s7.68 11.096 7.68 17.92v102.4h102.4c6.824 0 12.8 2.56 17.92 7.68s7.68 11.096 7.68 17.92c0 6.824-2.56 12.8-7.68 17.92s-11.096 7.68-17.92 7.68h-102.4v102.4c0 6.826-2.56 12.8-7.68 17.92s-11.096 7.68-17.92 7.68c-6.824 0-12.8-2.56-17.92-7.68s-7.68-11.094-7.68-17.92v-102.4h-102.4c-6.827 0-12.8-2.56-17.92-7.68s-7.68-11.096-7.68-17.92c0-6.824 2.56-12.8 7.68-17.92s11.093-7.68 17.92-7.68h102.4zM157.257 38.4c-28.16 0-52.258 10.021-72.294 30.054s-30.071 44.149-30.106 72.346v716.8c0 28.16 10.035 52.258 30.106 72.294s44.169 30.071 72.294 30.106h716.8c28.16 0 52.275-10.035 72.346-30.106s30.091-44.169 30.054-72.294v-256c0-14.506-4.915-26.675-14.746-36.506s-21.979-14.729-36.454-14.694c-14.475 0.034-26.624 4.95-36.454 14.746s-14.746 21.948-14.746 36.454v256h-716.8v-716.8h256c14.506 0 26.675-4.915 36.506-14.746s14.729-21.979 14.694-36.454c-0.034-14.475-4.95-26.639-14.746-36.506s-21.948-14.76-36.454-14.694h-256zM157.257 192v0zM259.657 294.4c0-14.506 4.915-26.675 14.746-36.506s21.982-14.729 36.454-14.694h106.24c14.506 0 26.675 4.915 36.506 14.746s14.729 21.982 14.694 36.454c-0.034 14.473-4.932 26.624-14.694 36.454s-21.93 14.746-36.506 14.746h-106.24c-14.506 0-26.658-4.915-36.454-14.746s-14.711-21.982-14.746-36.454zM259.657 499.2c0-14.506 4.915-26.675 14.746-36.506s21.982-14.729 36.454-14.694h256c14.506 0 26.675 4.915 36.506 14.746s14.728 21.982 14.694 36.454c-0.034 14.473-4.95 26.624-14.746 36.454s-21.948 14.746-36.454 14.746h-256c-14.506 0-26.658-4.915-36.454-14.746s-14.711-21.982-14.746-36.454zM259.657 704c0-14.506 4.915-26.675 14.746-36.506s21.982-14.729 36.454-14.694h409.6c14.504 0 26.675 4.915 36.506 14.746s14.731 21.982 14.694 36.454c-0.037 14.473-4.952 26.624-14.746 36.454s-21.95 14.746-36.454 14.746h-409.6c-14.506 0-26.658-4.915-36.454-14.746s-14.711-21.982-14.746-36.454zM822.857-64c-70.824 0-131.192 24.971-181.094 74.906s-74.872 110.299-74.906 181.094c-0.034 70.793 24.934 131.158 74.906 181.094s110.336 74.906 181.094 74.906c70.758 0 131.138-24.969 181.146-74.906s74.957-110.302 74.854-181.094c-0.102-70.795-25.073-131.174-74.906-181.146s-110.197-74.92-181.094-74.854z" />
<glyph unicode="&#xe925;" glyph-name="calendar" horiz-adv-x="1088" d="M415.999 490.672h-85.333v-85.334h85.333v85.334zM415.999 320.005h-85.333v-85.336h85.333v85.336zM586.666 490.672h-85.334v-85.334h85.334v85.334zM586.666 320.005h-85.334v-85.336h85.334v85.336zM757.331 490.672h-85.331v-85.334h85.331v85.334zM757.331 320.005h-85.331v-85.336h85.331v85.336zM842.669 21.338h-597.336c-47.061 0-85.333 38.272-85.333 85.331v597.336c0 47.061 38.272 85.333 85.333 85.333h85.334v85.334h85.333v-85.334h256v85.334h85.331v-85.334h85.338c47.059 0 85.331-38.272 85.331-85.333v-597.336c0-47.059-38.272-85.331-85.331-85.331zM842.707 106.669l-0.038 512.003h-597.336v-512.003h597.374z" />
<glyph unicode="&#xe926;" glyph-name="case" horiz-adv-x="1088" d="M819.2 678.4h-115.2v76.8c0 42.355-34.445 76.8-76.8 76.8h-230.4c-42.355 0-76.8-34.445-76.8-76.8v-76.8h-115.2c-42.355 0-76.8-34.445-76.8-76.8v-115.2h768v115.2c0 42.355-34.445 76.8-76.8 76.8zM396.8 755.2h230.4v-76.8h-230.4v76.8zM588.8 371.2h-153.6v76.8h-307.2v-268.8c0-42.355 34.445-76.8 76.8-76.8h614.4c42.355 0 76.8 34.445 76.8 76.8v268.8h-307.2v-76.8z" />
<glyph unicode="&#xe927;" glyph-name="folder1" horiz-adv-x="1434" d="M158.72-64c-36.608 0-67.936 12.522-93.983 37.569-26.047 25.045-39.093 55.188-39.137 90.431v768c0 35.2 13.046 65.323 39.137 90.368s57.419 37.589 93.983 37.632h399.36l133.12-128h532.48c36.608 0 67.953-12.544 94.044-37.632s39.117-55.211 39.076-90.368v-640c0-35.2-13.025-65.343-39.076-90.431-26.040-25.088-57.395-37.609-94.044-37.569h-1064.96zM158.72 64h1064.96v640h-587.392l-133.12 128h-344.448v-768z" />
<glyph unicode="&#xe928;" glyph-name="group1" horiz-adv-x="1097" d="M753.006 587.64c0 49.378-19.617 96.734-54.531 131.65s-82.272 54.532-131.65 54.532-96.735-19.615-131.651-54.532c-34.916-34.915-54.532-82.272-54.532-131.65s19.615-96.735 54.532-131.651c34.915-34.916 82.272-54.532 131.651-54.532s96.734 19.615 131.65 54.532c34.914 34.915 54.531 82.272 54.531 131.651zM659.915 587.64c0-24.689-9.808-48.368-27.265-65.826s-41.136-27.265-65.825-27.265c-24.689 0-48.368 9.808-65.826 27.265s-27.265 41.136-27.265 65.826c0 24.689 9.808 48.367 27.265 65.825s41.136 27.265 65.826 27.265c24.689 0 48.367-9.808 65.825-27.265s27.265-41.136 27.265-65.825zM566.857 960c-282.764 0-512-229.236-512-512s229.236-512 512-512c282.763 0 512 229.237 512 512s-229.237 512-512 512zM147.948 448c0-97.28 33.186-186.833 88.809-257.953 39.072 51.286 89.468 92.85 147.253 121.448s121.398 43.456 185.873 43.414c63.645 0.075 126.468-14.386 183.672-42.28 57.212-27.894 107.293-68.484 146.432-118.676 40.324 52.896 67.482 114.633 79.214 180.106s7.702 132.797-11.747 196.403c-19.456 63.607-53.775 121.667-100.125 169.377-46.343 47.71-103.387 83.697-166.402 104.984-63.016 21.287-130.196 27.263-195.98 17.433s-128.282-35.185-182.323-73.964c-54.040-38.78-98.069-89.871-128.444-149.045s-46.222-124.731-46.23-191.246zM566.857 29.089c-96.167-0.154-189.433 32.929-264.005 93.652 30.013 42.979 69.966 78.073 116.46 102.283 46.493 24.217 98.149 36.839 150.57 36.795 51.767 0.045 102.797-12.263 148.852-35.902s85.801-57.922 115.943-100.008c-75.147-62.698-169.951-96.973-267.82-96.819z" />
<glyph unicode="&#xe929;" glyph-name="heart" horiz-adv-x="1260" d="M876.308 940.327c-98.904 0-186.683-39.040-246.154-106.142-59.471 67.102-147.25 106.142-246.154 106.142-86.143-0.104-168.728-34.371-229.64-95.283s-95.179-143.497-95.283-229.641c0-356.135 520.91-640.688 543.064-652.653 8.609-4.632 18.234-7.066 28.013-7.066s19.403 2.434 28.013 7.066c22.154 11.965 543.064 296.518 543.064 652.653-0.102 86.144-34.367 168.728-95.279 229.641s-143.502 95.179-229.644 95.283zM849.282 239.477c-68.567-58.182-141.863-110.548-219.128-156.557-77.266 46.009-150.561 98.375-219.127 156.557-106.683 91.52-233.797 231.089-233.797 375.926 0 54.839 21.784 107.432 60.561 146.208s91.37 60.561 146.208 60.561c87.631 0 160.985-46.277 191.458-120.812 4.435-10.865 12.007-20.163 21.748-26.709s21.212-10.041 32.948-10.041c11.736 0 23.206 3.496 32.948 10.041s17.313 15.844 21.748 26.709c30.473 74.535 103.827 120.812 191.458 120.812 54.839 0 107.433-21.784 146.211-60.561 38.77-38.777 60.558-91.369 60.558-146.208 0-144.837-127.118-284.406-233.795-375.926z" />
<glyph unicode="&#xe92a;" glyph-name="id-card" horiz-adv-x="1088" d="M851.2 768h-614.4c-42.355 0-76.8-34.445-76.8-76.8v-460.8c0-42.355 34.445-76.8 76.8-76.8h614.4c42.355 0 76.8 34.445 76.8 76.8v460.8c0 42.355-34.445 76.8-76.8 76.8zM417.856 614.4c44.198 0 76.8-32.602 76.8-76.8s-32.602-76.8-76.8-76.8c-44.198 0-76.8 32.602-76.8 76.8s32.563 76.8 76.8 76.8zM560.512 307.2h-285.312v17.856c0 52.723 64.358 106.944 142.656 106.944s142.656-54.221 142.656-106.944v-17.856zM812.8 345.6h-153.6v76.8h153.6v-76.8zM812.8 499.2h-192v76.8h192v-76.8z" />
<glyph unicode="&#xe92b;" glyph-name="jam_coin-f" horiz-adv-x="1088" d="M501.25 304.723h-2.176c-10.739 0-21.037 4.269-28.631 11.859-7.594 7.594-11.86 17.893-11.86 28.632 0 11.316-4.495 22.168-12.497 30.17s-18.854 12.497-30.17 12.497c-11.316 0-22.168-4.495-30.17-12.497s-12.497-18.854-12.497-30.17c0-33.368 13.256-65.375 36.853-88.972s55.601-36.851 88.971-36.851h2.176v-42.669c0-11.315 4.495-22.17 12.497-30.17s18.854-12.499 30.17-12.499c11.316 0 22.168 4.499 30.17 12.499s12.497 18.854 12.497 30.17v42.669c33.948 0 66.505 13.485 90.511 37.491 24.006 24 37.491 56.557 37.491 90.508 0 33.948-13.485 66.505-37.491 90.509s-56.563 37.491-90.511 37.491v85.333h0.939c23.040 0 41.728-18.688 41.728-41.728 0-11.316 4.495-22.168 12.497-30.17 8-8.002 18.854-12.497 30.17-12.497s22.17 4.495 30.17 12.497c8 8.001 12.499 18.854 12.499 30.17 0 33.699-13.389 66.017-37.216 89.846s-56.149 37.216-89.848 37.216h-0.939v42.666c0 11.316-4.495 22.168-12.497 30.17s-18.854 12.497-30.17 12.497c-11.316 0-22.168-4.495-30.17-12.497s-12.497-18.854-12.497-30.17v-42.666c-16.809 0-33.453-3.311-48.984-9.744s-29.64-15.86-41.526-27.747c-11.886-11.886-21.315-25.997-27.747-41.526s-9.743-32.174-9.743-48.983c0-16.81 3.311-33.454 9.743-48.984s15.861-29.64 27.747-41.526c11.886-11.886 25.996-21.315 41.526-27.747s32.175-9.743 48.984-9.743v-85.334zM586.583 304.723v85.334c11.316 0 22.168-4.495 30.17-12.497s12.497-18.854 12.497-30.17c0-11.316-4.495-22.168-12.497-30.168-8.002-8.006-18.854-12.499-30.17-12.499zM501.25 560.724v-85.333c-11.316 0-22.168 4.495-30.17 12.497s-12.497 18.854-12.497 30.17c0 11.316 4.495 22.168 12.497 30.17s18.854 12.497 30.17 12.497zM543.917 6.054c-235.648 0-426.667 191.021-426.667 426.669s191.019 426.667 426.667 426.667c235.648 0 426.669-191.019 426.669-426.667s-191.021-426.669-426.669-426.669z" />
<glyph unicode="&#xe92c;" glyph-name="mdi_calendar" horiz-adv-x="1088" d="M806.4 140.8h-537.6v422.4h537.6zM691.2 832v-76.8h-307.2v76.8h-76.8v-76.8h-38.4c-42.624 0-76.8-34.176-76.8-76.8v-537.6c0-20.371 8.092-39.904 22.494-54.304 14.403-14.406 33.937-22.496 54.306-22.496h537.6c20.371 0 39.904 8.090 54.304 22.496 14.406 14.4 22.496 33.933 22.496 54.304v537.6c0 20.369-8.090 39.903-22.496 54.306-14.4 14.403-33.933 22.494-54.304 22.494h-38.4v76.8zM729.6 409.6h-192v-192h192v192z" />
<glyph unicode="&#xe92d;" glyph-name="round-group" horiz-adv-x="1088" d="M738.912 459.636c67.603 0 121.773 54.575 121.773 122.182s-54.17 122.182-121.773 122.182c-67.61 0-122.185-54.575-122.185-122.182s54.575-122.182 122.185-122.182zM413.091 459.636c67.607 0 121.774 54.575 121.774 122.182s-54.167 122.182-121.774 122.182c-67.608 0-122.182-54.575-122.182-122.182s54.575-122.182 122.182-122.182zM413.091 378.182c-94.895 0-285.091-47.651-285.091-142.547v-61.088c0-22.4 18.327-40.73 40.727-40.73h488.726c22.4 0 40.73 18.33 40.73 40.73v61.088c0 94.896-190.197 142.547-285.091 142.547zM738.912 378.182c-11.814 0-25.254-0.815-39.507-2.036 0.813-0.407 1.222-1.222 1.626-1.629 46.432-33.804 78.605-79.009 78.605-138.881v-61.088c0-14.259-2.848-28.102-7.328-40.73h210.963c22.4 0 40.73 18.33 40.73 40.73v61.088c0 94.896-190.195 142.547-285.088 142.547z" />
<glyph unicode="&#xe92e;" glyph-name="whatsapp" horiz-adv-x="1097" d="M929.631 811.006c-47.184 47.405-103.38 84.993-165.303 110.573-61.933 25.58-128.36 38.639-195.413 38.418-280.957 0-509.942-227.839-509.942-507.391 0-89.6 23.67-176.639 67.923-253.439l-72.040-263.168 270.151 70.656c74.613-40.448 158.488-61.952 243.907-61.952 280.953 0 509.942 227.84 509.942 507.391 0 135.68-52.999 263.167-149.226 358.911zM568.915 30.72c-76.157 0-150.77 20.48-216.12 58.88l-15.438 9.216-160.546-41.984 42.71 155.648-10.292 15.872c-42.321 67.222-64.788 144.932-64.836 224.255 0 232.447 190.392 421.887 424.008 421.887 113.206 0 219.721-44.032 299.483-123.904 39.497-39.109 70.802-85.634 92.087-136.874 21.292-51.24 32.139-106.176 31.927-161.622 1.024-232.447-189.367-421.375-422.982-421.375zM801.499 346.111c-12.859 6.144-75.639 36.864-86.96 41.472-11.835 4.096-20.068 6.144-28.816-6.144-8.747-12.8-32.933-41.472-40.136-49.664-7.204-8.704-14.923-9.727-27.787-3.071-12.864 6.143-54.030 19.967-102.4 62.975-38.078 33.792-63.292 75.264-71.011 88.064-7.204 12.8-1.029 19.456 5.66 26.112 5.661 5.632 12.864 14.848 19.040 22.016s8.747 12.8 12.864 20.992c4.116 8.704 2.058 15.872-1.029 22.016s-28.816 68.607-39.108 94.207c-10.291 24.576-21.097 21.504-28.816 22.016h-24.7c-8.747 0-22.126-3.072-33.962-15.872-11.32-12.8-44.253-43.52-44.253-105.983s45.797-122.88 51.972-131.072c6.175-8.704 90.051-136.703 217.664-191.487 30.359-13.312 54.030-20.991 72.555-26.623 30.359-9.728 58.146-8.192 80.271-5.12 24.7 3.584 75.644 30.719 85.936 60.415 10.803 29.696 10.803 54.783 7.205 60.415-3.606 5.632-11.323 8.192-24.188 14.336z" />
</font>
</defs>
</svg>
